<svg xmlns="http://www.w3.org/2000/svg" width="146" height="36" viewBox="0 0 146 36">
    <path fill="#353949" fill-rule="evenodd" d="M70.056 11.63c4.302 0 6.463 1.886 6.86 2.421-.037.955-.536 2.135-1.136 2.712-.59.562-1.34.348-2.086-.001-1.275-.622-2.654-.959-3.965-.959-3.812 0-6.293 3.062-6.293 7.401 0 5.706 4.24 7.96 7.746 7.96 2.106 0 3.884-.439 5.001-.846l.336.28c-.14 1.292-1.003 2.938-1.893 3.708-1.315.786-3.267 1.145-5.243 1.145-6.32 0-11.981-3.612-11.981-11.432 0-4.697 2.193-7.828 4.604-9.71 2.272-1.774 5.107-2.678 8.05-2.678zm18.712 0c4.612 0 7.838 2.667 7.838 8.044 0 2.156-.22 6.902-.184 10.188 0 .706.486 1.29 1.603 1.29.493 0 1.029-.181 1.433-.37v2.28c-.268.946-1.78 2.39-4.379 2.39-2.095 0-3.503-1.192-4.106-2.954-1.202 1.339-3.696 2.953-6.311 2.953-3.418 0-6.15-2.313-6.15-6.187 0-5.32 6.81-7.27 10.155-7.957 1.195-.223 1.834-.355 2.269-.428v-1.185c.015-1.932-1.19-3.542-3.572-3.542-1.801 0-3.577 1.126-4.64 1.782-1.422.778-2.446.517-3.061-1.542l-.354-1.146c1.779-1.54 5.818-3.616 9.46-3.616zm-44.954.308c0 1.06-.145 4.543-.154 8.849v8.025c0 2.155 1.043 2.65 2.471 2.893v1.347c-.506 1.042-1.625 2.399-2.79 2.399-2.643 0-4.256-1.438-4.777-3.457-1.684 1.561-2.936 2.353-3.91 2.785-.998.437-2.032.672-3.318.672-5.479 0-7.873-3.207-7.873-8.248v-8.924c0-3.17-.103-4.711-.205-5.738 1.16-.337 3.898-.603 5.163-.603.704 0 .902.257.902 3.208.014 3.39.014 7.162.014 10.694 0 4.24 2.092 4.956 3.961 4.956 1.843 0 3.637-1.213 4.488-2.302V14.21c0-1.43.154-1.717 1.016-1.926 2.114-.228 3.38-.346 5.012-.346zM54.3 1.666v.14c-.01 1.757-.146 14.194-.154 18.939v8.067c0 2.155 1.043 2.65 2.471 2.893v1.347c-.507 1.042-1.625 2.399-2.79 2.399-2.643 0-5.643-1.068-5.556-6.956V3.938c0-1.43.154-1.717 1.017-1.927 2.114-.228 3.381-.345 5.012-.345zm73.198 9.965c6.425 0 8.847 4.379 9.001 8.873 0 .674-.056 1.356-.158 1.745-.154.799-2.294 1.636-4.298 2.12-1.305.261-6.593.327-9.555.21.093 4.52 3.54 6.515 7.377 6.515 2.578 0 4.291-.542 4.932-.812l.338.418c-.008 1.978-2.164 3.851-2.85 4.114-.505.193-2.315.637-4.101.637-2.2 0-5.503-.3-8.212-2.751-2.483-2.201-3.349-5.578-3.349-8.837 0-6.242 4.046-12.232 10.875-12.232zM6.347 3.375v18.59c2.528-2.572 7.365-8.568 8.863-10.335 1.061-.036 2.719.111 3.982.406 1.216.322 1.185 1.04-.226 2.643-1.802 2.142-4.066 4.357-6.72 7.094 1.854 2.854 6.747 9.54 9.514 12.556l-.096.254c-.83.397-2.94.663-4.503.663-1.588 0-2.452-.394-3.654-2.096-1.928-2.544-5.302-7.308-7.16-10.48v10.932c0 1.027-.368 1.247-1.512 1.35-1.25.14-2.14.228-4.517.19.1-2.007.15-4.88.154-8.911V6.443C.473 3.375.37 1.835.268.742 1.361.308 4.431 0 5.437 0c.704 0 .91.257.91 3.375zm108.198 8.255c1.192 0 2.272.594 2.729 1.15.082.86-.239 3.013-1.124 4.238-.398.558-.996.931-1.756.703a6.01 6.01 0 0 0-1.94-.293c-.913 0-2.497.86-3.374 3.09-.325.846-.472 1.449-.472 2.579v10.492c0 .792-.123 1.145-1.1 1.289-1.702.213-3.21.265-4.927.265.11-2.543.154-5.671.154-9.358v-8.338c0-1.086-.514-1.881-1.446-2.253v-.889c.291-.652 1.091-1.7 1.762-2.338.505-.182 1.02-.337 1.576-.337 2.463 0 3.506 2.289 3.58 5.288 1.536-3.411 3.718-5.288 6.338-5.288zM90.862 24.258c-4.417.56-6.72 2.16-6.72 4.018v.052c0 1.47.845 2.527 2.47 2.527 1.67 0 3.106-.934 3.838-1.772.273-.341.412-.79.412-1.7v-3.125zm36.083-8.912h-.05c-2.002 0-4.118 1.93-4.283 5.641 2.393.14 6.287.074 7.443 0 .44-.014.729-.503.729-1.079.028-2.659-1.313-4.562-3.839-4.562zm13.936-10.225l1.708 4.29 1.656-4.29h1.092v5.29h-.681V5.739h-.026l-1.875 4.674h-.384l-1.875-4.674h-.026v4.674h-.68v-5.29h1.09zm-2.03 0V5.7h-1.72v4.713h-.68V5.699h-1.72v-.578h4.12z"/>
</svg>
